<svg xmlns="http://www.w3.org/2000/svg" viewBox="0 0 156.36 156.36"><defs><style>.cls-1{fill:#f7931e;}.cls-2{fill:#343a40;}</style></defs><g id="Layer_2" data-name="Layer 2"><g id="Layer_1-2" data-name="Layer 1"><circle class="cls-1" cx="78.18" cy="78.18" r="76.18"/><path class="cls-2" d="M78.18,4A74.18,74.18,0,1,1,4,78.18,74.18,74.18,0,0,1,78.18,4m0-4a78.18,78.18,0,1,0,78.18,78.18A78.27,78.27,0,0,0,78.18,0Z"/><path class="cls-2" d="M77.54,48.07,45.31,77V121.5a1.34,1.34,0,0,0,1.35,1.34H66.33a1.34,1.34,0,0,0,1.35-1.34V90.86A1.34,1.34,0,0,1,69,89.52h17a1.34,1.34,0,0,1,1.34,1.34V121.5a1.34,1.34,0,0,0,1.34,1.34h19.68a1.34,1.34,0,0,0,1.34-1.34V77Z"/><path class="cls-2" d="M77.54,25,29.21,67.58a1,1,0,0,0-.07,1.4l6.64,7.38a1,1,0,0,0,1.39.07L77.66,40l41.56,36.74a.9.9,0,0,0,1.27-.07l6.76-7.51a.9.9,0,0,0-.07-1.27L77.54,25"/></g></g></svg>