<svg xmlns="http://www.w3.org/2000/svg" viewBox="0 0 101.07 101.07"><defs><style>.cls-1{fill:#f7931e;}.cls-2{fill:#343a40;}.cls-3{fill:#fff;}</style></defs><g id="Layer_2" data-name="Layer 2"><g id="Layer_1-2" data-name="Layer 1"><circle class="cls-1" cx="50.54" cy="50.54" r="48.54" transform="translate(-10.26 88.11) rotate(-76.72)"/><path class="cls-2" d="M50.54,4A46.54,46.54,0,1,1,4,50.54,46.54,46.54,0,0,1,50.54,4m0-4a50.54,50.54,0,1,0,50.53,50.54A50.59,50.59,0,0,0,50.54,0Z"/><path class="cls-2" d="M57.86,63.91a1.66,1.66,0,0,0,1-1.19c1.17-5-3.61-4.87-7.7-4.87a28.58,28.58,0,0,1-6.08-.54,14.69,14.69,0,0,1-2.14-.66l-3.08-3.1a1.79,1.79,0,0,0-1.07-.36H27.61V70.26S37.38,73.7,42,75.37c3.41,1.16,8.11.65,10.06.36a6.23,6.23,0,0,0,1.64-.5L64.7,70c4.72-2.35,11.4-7.09,11.75-8.51.82-3.32-1.31-5.08-7.06-2.23a56,56,0,0,1-11.56,4.63"/><path class="cls-1" d="M47.29,76.84a17.77,17.77,0,0,1-5.55-.76C37.13,74.41,27.36,71,27.36,71l-.51-.17V52.44H38.79a2.53,2.53,0,0,1,1.52.51l.08.07,3,3c.23.1,1.54.45,1.83.52a27.87,27.87,0,0,0,5.91.52h.25c2.88,0,6.15,0,7.63,1.86a4.27,4.27,0,0,1,.61,3.64,66.71,66.71,0,0,0,9.4-4c4.25-2.1,6.3-1.61,7.27-.84s1.28,2.18.86,3.92c-.49,2-8.17,7-12.14,9L54,75.9a6.79,6.79,0,0,1-1.86.57A34.39,34.39,0,0,1,47.29,76.84ZM28.35,69.73c2.06.72,9.91,3.49,13.89,4.93,3.26,1.12,7.87.6,9.7.33a5.51,5.51,0,0,0,1.43-.44l11-5.21c5.16-2.57,11-7,11.34-8,.16-.65.33-1.83-.34-2.38-.87-.69-3-.31-5.66,1A57.15,57.15,0,0,1,58,64.64C54.55,65.86,44.59,66,44.16,66a2,2,0,0,0-1.29.46.92.92,0,0,0-.22.72l-1.5.07a2.44,2.44,0,0,1,.64-1.83,3.5,3.5,0,0,1,2.36-.92c.09,0,10.26-.16,13.45-1.32a.89.89,0,0,0,.53-.65,3,3,0,0,0-.27-2.66c-1-1.29-3.91-1.29-6.45-1.29h-.25A29.22,29.22,0,0,1,44.92,58a12.29,12.29,0,0,1-2.43-.79l-.08-.07-3-3.06a1,1,0,0,0-.58-.18H28.35Z"/><path class="cls-2" d="M60.4,25.81,47.18,37.7V56a.55.55,0,0,0,.55.55H55.8a.55.55,0,0,0,.55-.55V43.38a.55.55,0,0,1,.56-.55h7a.54.54,0,0,1,.55.55V56a.56.56,0,0,0,.56.55h8.07a.55.55,0,0,0,.55-.55V37.7Z"/><path class="cls-2" d="M60.4,16.33,40.57,33.82a.41.41,0,0,0,0,.58l2.72,3a.41.41,0,0,0,.58,0l16.61-15L77.51,37.57a.38.38,0,0,0,.52,0l2.77-3.08a.37.37,0,0,0,0-.52L60.4,16.33"/><rect class="cls-2" x="17.41" y="51.7" width="9.14" height="20.3" rx="0.54"/><line class="cls-3" x1="21.98" y1="55.13" x2="21.98" y2="57.5"/><rect class="cls-1" x="21.48" y="55.13" width="1" height="2.38"/><line class="cls-3" x1="21.98" y1="60.05" x2="21.98" y2="68.57"/><rect class="cls-1" x="21.48" y="60.05" width="1" height="8.52"/></g></g></svg>