<svg xmlns="http://www.w3.org/2000/svg" viewBox="0 0 178.07 178.07"><defs><style>.cls-1{fill:#f3f3f3;}.cls-2{fill:#fff;}.cls-3{fill:#f7931e;}</style></defs><g id="Layer_2" data-name="Layer 2"><g id="Layer_1-2" data-name="Layer 1"><circle class="cls-1" cx="89.03" cy="89.03" r="82.53" transform="translate(-18.07 155.23) rotate(-76.72)"/><path class="cls-2" d="M89,13A76,76,0,1,1,13,89,76,76,0,0,1,89,13M89,0a89,89,0,1,0,89,89A89.13,89.13,0,0,0,89,0Z"/><path class="cls-3" d="M118.62,126.24H95.73V103.79a7.19,7.19,0,0,0-7.18-7.18A7.38,7.38,0,0,0,81.18,104v22.26H58.29V81.47a1.5,1.5,0,0,1,3,0v41.77H78.18V104A10.38,10.38,0,0,1,88.55,93.61a10.2,10.2,0,0,1,10.18,10.18v19.45h16.89V81.79a1.5,1.5,0,0,1,3,0Z"/><path class="cls-3" d="M132.6,81.18a1.46,1.46,0,0,1-.87-.28L87.58,49.4A1.5,1.5,0,1,1,89.33,47l44.14,31.5a1.5,1.5,0,0,1-.87,2.72Z"/><path class="cls-3" d="M45.47,81a1.5,1.5,0,0,1-.88-2.72L87.57,47a1.5,1.5,0,1,1,1.77,2.42l-43,31.3A1.5,1.5,0,0,1,45.47,81Z"/></g></g></svg>