<svg xmlns="http://www.w3.org/2000/svg" viewBox="0 0 178.07 178.07"><defs><style>.cls-1{fill:#f3f3f3;}.cls-2{fill:#fff;}.cls-3{fill:#f7931e;}</style></defs><g id="Layer_2" data-name="Layer 2"><g id="Layer_1-2" data-name="Layer 1"><circle class="cls-1" cx="89.03" cy="89.03" r="82.53"/><path class="cls-2" d="M89,13A76,76,0,1,1,13,89,76,76,0,0,1,89,13M89,0a89,89,0,1,0,89,89A89.13,89.13,0,0,0,89,0Z"/><path class="cls-3" d="M113.9,127.4a17.19,17.19,0,0,1-11.68-4.57,17,17,0,0,1-5-16.48L71.52,82.46A17.1,17.1,0,0,1,49.64,62.53a1.72,1.72,0,0,1,2.85-.89L64.13,72.46l8.35-9L60.84,52.66a1.72,1.72,0,0,1,.68-2.92A17.22,17.22,0,0,1,78,53.62,17,17,0,0,1,83,70.1L108.71,94a17,17,0,0,1,16.8,3.78h0a17.19,17.19,0,0,1,5.07,16.15,1.71,1.71,0,0,1-1.17,1.28,1.68,1.68,0,0,1-1.68-.39l-11.9-11-8.34,9,11.89,11.06a1.71,1.71,0,0,1-.68,2.91A17.14,17.14,0,0,1,113.9,127.4ZM71.83,79.28a1.7,1.7,0,0,1,1.16.46l26.84,24.94a1.69,1.69,0,0,1,.47,1.74,14.1,14.1,0,0,0,15.22,17.89l-11-10.24a1.73,1.73,0,0,1-.09-2.43l10.09-10.86a1.72,1.72,0,0,1,2.43-.08l11,10.23a14.15,14.15,0,0,0-4.48-11h0A14,14,0,0,0,109,97.07a1.72,1.72,0,0,1-1.77-.37L80.4,71.78a1.72,1.72,0,0,1-.49-1.73A14.1,14.1,0,0,0,64.7,52.15l10.76,10a1.73,1.73,0,0,1,.09,2.43L65.46,75.44a1.7,1.7,0,0,1-1.19.54A1.67,1.67,0,0,1,63,75.52l-10.76-10a14.2,14.2,0,0,0,4.48,11,14.05,14.05,0,0,0,14.48,2.9A1.81,1.81,0,0,1,71.83,79.28Zm57.94,33.33h0Zm-32.35-7v0Zm17.48-2.69h0Zm-5.65-8.39h0Zm-37-12.3h0Zm-7.2-8.88h0Zm17.36-3.74h0ZM52.57,63.16h0Z"/><path class="cls-3" d="M57.54,130.84l-8.79-8.33L53.63,114l7.09-4.59L81.36,87.63l9.26,8.77L70,118.18l-4.2,7.33Zm-5-8.89L57.89,127l5.65-3.65,4.14-7.14,18.7-19.74-4.91-4.64L62.65,111.73l-6.78,4.39Zm9.16-11.38h0Z"/><path class="cls-3" d="M105.62,87.24,91.18,74.38,101,67l6.21-11.32,7.6-8.53a3.25,3.25,0,0,1,2.78-1,4.71,4.71,0,0,1,2.67,1.2l8.91,7.94a4.71,4.71,0,0,1,1.51,2.52,3.25,3.25,0,0,1-.7,2.88l-7.85,8.76-10.3,7.19ZM95.9,74.57l9,8,4.7-8.07L120.27,67l7.47-8.4c.07-.1,0-.65-.56-1.16l-8.91-7.94c-.57-.5-1.13-.5-1.22-.42l-7.48,8.4L103.33,69Zm33-14.95h0Z"/></g></g></svg>