<svg xmlns="http://www.w3.org/2000/svg" viewBox="0 0 423.38 101.07"><defs><style>.cls-1{fill:#f7931e;}.cls-2{fill:#343a40;}.cls-3{fill:#212529;}.cls-4{fill:#adb5bd;}.cls-5{fill:#fff;}</style></defs><g id="Layer_2" data-name="Layer 2"><g id="Layer_1-2" data-name="Layer 1"><circle class="cls-1" cx="50.54" cy="50.54" r="48.54" transform="translate(-10.26 88.11) rotate(-76.72)"/><path class="cls-2" d="M50.54,4A46.54,46.54,0,1,1,4,50.54,46.54,46.54,0,0,1,50.54,4m0-4a50.54,50.54,0,1,0,50.53,50.54A50.59,50.59,0,0,0,50.54,0Z"/><path class="cls-3" d="M140,21.88h-.14a3.11,3.11,0,0,0-.94-2.15,3,3,0,0,0-2.15-.89h-.62v-.48H140Zm0,26.71v3.52h-3.85v-.48h.62a3,3,0,0,0,2.15-.89,3.13,3.13,0,0,0,.94-2.15Zm7.09-30.23V52.11h-7.23V18.36Zm16.06,16v2H146.61v-2ZM147,21.88V18.36h3.86v.48h-.63a3,3,0,0,0-2.15.89,3.11,3.11,0,0,0-.94,2.15Zm0,26.71h.14a3.13,3.13,0,0,0,.94,2.15,3,3,0,0,0,2.15.89h.63v.48H147Zm15.91-26.71h-.14a2.89,2.89,0,0,0-.92-2.15,3,3,0,0,0-2.17-.89H159v-.48h3.86Zm0,26.71v3.52H159v-.48h.63a3,3,0,0,0,2.17-.89,2.9,2.9,0,0,0,.92-2.15ZM170,18.36V52.11h-7.23V18.36Zm-.14,3.52V18.36h3.85v.48H173a2.94,2.94,0,0,0-2.15.89,3.11,3.11,0,0,0-.94,2.15Zm0,26.71H170a3.13,3.13,0,0,0,.94,2.15,2.94,2.94,0,0,0,2.15.89h.62v.48h-3.85Z"/><path class="cls-3" d="M193.58,22.55a22.21,22.21,0,0,1,7,1,15.45,15.45,0,0,1,5.4,3,13.44,13.44,0,0,1,3.5,4.78,15.51,15.51,0,0,1,1.23,6.31,15.26,15.26,0,0,1-1.23,6.25,13.5,13.5,0,0,1-3.5,4.75,15.45,15.45,0,0,1-5.4,3,23.88,23.88,0,0,1-13.94,0,15.45,15.45,0,0,1-5.4-3,13.3,13.3,0,0,1-3.47-4.75,15.59,15.59,0,0,1-1.2-6.25,15.85,15.85,0,0,1,1.2-6.31,13.24,13.24,0,0,1,3.47-4.78,15.45,15.45,0,0,1,5.4-3A22.09,22.09,0,0,1,193.58,22.55Zm0,28.31a8.39,8.39,0,0,0,5.13-1.62,10.11,10.11,0,0,0,3.38-4.56,18.66,18.66,0,0,0,1.18-7,19,19,0,0,0-1.18-7.06,10.12,10.12,0,0,0-3.38-4.58,8.39,8.39,0,0,0-5.13-1.62,8.21,8.21,0,0,0-5.06,1.62,10.34,10.34,0,0,0-3.38,4.58,18.79,18.79,0,0,0-1.21,7.06,18.44,18.44,0,0,0,1.21,7,10.33,10.33,0,0,0,3.38,4.56A8.21,8.21,0,0,0,193.58,50.86Z"/><path class="cls-3" d="M216.39,49v3.09h-4.73v-.48h.63a3.41,3.41,0,0,0,2.1-.68A2.86,2.86,0,0,0,215.47,49Zm2.84-26.47h.39l1.64,4.63-3,24.93h-3.13Zm-.72,27.15a2.32,2.32,0,0,0,.31,1.23,1.36,1.36,0,0,0,1.33.7h.67v.48h-2.89l.29-2.41Zm1.11-27.15,14.27,21.36L231.29,53,218.46,33.59Zm26.42,0,.39,5-13,20.59a20.6,20.6,0,0,0-1.28,2.7,7.33,7.33,0,0,0-.46,2.22h-.43l-1.88-4ZM243,49.7h.29l.28,2.41h-2.89v-.48h.68a1.4,1.4,0,0,0,1.4-.7A2.11,2.11,0,0,0,243,49.7Zm3.47-27.15,4.24,29.56h-7.38L241,34.51l5.06-12ZM249.37,49h.92A3,3,0,0,0,251.42,51a3.25,3.25,0,0,0,2,.68h.68v.48h-4.73Z"/><path class="cls-3" d="M258.68,26.22h-.15a2.41,2.41,0,0,0-.77-1.84,2.58,2.58,0,0,0-1.83-.72h-.63v-.48h3.57Zm0,22.85.19,3H255.3v-.48h.63a2.52,2.52,0,0,0,1.83-.75,2.41,2.41,0,0,0,.77-1.81Zm6.8-25.89V52.11h-7V23.18Zm11.81,0v1.93H265.38V23.18Zm-2.17,13.64v1.93h-9.74V36.82Zm1.64,13.36,1.11,1.93H265.38V50.18Zm3.09-6.94L278,52.11h-8.35l1.5-1.93a7.9,7.9,0,0,0,3.69-.84,8.14,8.14,0,0,0,2.77-2.41,11.72,11.72,0,0,0,1.78-3.69Zm-4.73-10.56v4.24H271v-.1a3.59,3.59,0,0,0,2.67-1.13,3.81,3.81,0,0,0,1-2.68v-.33Zm0,6V42.9h-.48v-.39a3.8,3.8,0,0,0-1-2.67A3.42,3.42,0,0,0,271,38.75v-.09Zm2.17-16.21v1.16l-5.06-.43a17.1,17.1,0,0,0,2.94-.27A15.12,15.12,0,0,0,277.29,22.45Zm0,2.56v5.11h-.48v-.43a4.68,4.68,0,0,0-1.13-3.33,4.41,4.41,0,0,0-3.26-1.25V25Z"/><path class="cls-3" d="M285.68,26.22h-.14a2.4,2.4,0,0,0-.8-1.84,2.68,2.68,0,0,0-1.85-.72h-.58v-.48h3.37Zm0,22.85.2,3h-3.57v-.48h.62a2.56,2.56,0,0,0,1.84-.75,2.44,2.44,0,0,0,.77-1.81Zm6.8-25.89V52.11h-6.94V23.18Zm-.09,3v-3h3.32v.48h-.58a2.63,2.63,0,0,0-2.65,2.56Zm11.33,24,1.15,1.93H292.39V50.18Zm3.18-6.94L305,52.11h-8.34l1.49-1.93a7.9,7.9,0,0,0,3.69-.84,8,8,0,0,0,2.77-2.41,11.74,11.74,0,0,0,1.79-3.69Z"/><path class="cls-3" d="M311.87,26.22h-.15a2.35,2.35,0,0,0-.82-1.84,2.87,2.87,0,0,0-2-.72h-.58v-.48h3.52Zm0,22.85v3h-3.52v-.48H309a2.75,2.75,0,0,0,1.93-.75,2.35,2.35,0,0,0,.82-1.81Zm6.8-25.89V52.11h-6.95V23.18Zm-.1,3v-3H322l-.05.48h-.53a2.8,2.8,0,0,0-1.95.72,2.55,2.55,0,0,0-.84,1.84Zm0,22.85h.1a2.55,2.55,0,0,0,.84,1.81,2.73,2.73,0,0,0,1.95.75H322v.48h-3.47Z"/><path class="cls-3" d="M335.16,22.55c.64,0,1.42,0,2.34.1s1.82.13,2.72.21,1.7.18,2.39.29a9,9,0,0,1,1.42.32l-.63,5.88H343a4.36,4.36,0,0,0-1.54-3.52,6.7,6.7,0,0,0-4.44-1.3,6.36,6.36,0,0,0-3.74,1,3.47,3.47,0,0,0-1.52,2.7,2.48,2.48,0,0,0,.32,1.57A4.08,4.08,0,0,0,333.21,31c.49.35,1.05.71,1.66,1.06l7.57,4.68a7.25,7.25,0,0,1,3,2.79,7.56,7.56,0,0,1,1,4.44,8.64,8.64,0,0,1-1.56,4.68,8.93,8.93,0,0,1-3.91,3,15.19,15.19,0,0,1-5.86,1,21.25,21.25,0,0,1-3.86-.34,13.54,13.54,0,0,1-3.06-.92,6,6,0,0,1-1.95-1.3,5.73,5.73,0,0,1-.34-2.34,12,12,0,0,1,.43-2.75,8.86,8.86,0,0,1,1-2.29h.38a7.65,7.65,0,0,0,.78,4,6.87,6.87,0,0,0,2.77,2.91,8.54,8.54,0,0,0,4.41,1.09,6,6,0,0,0,4.2-1.3,4.09,4.09,0,0,0,1.39-3.09,3.56,3.56,0,0,0-.84-2.29,9,9,0,0,0-2.77-2.05l-6.85-4.34a7.92,7.92,0,0,1-3.5-3.33,7.66,7.66,0,0,1-.79-4.53,8.38,8.38,0,0,1,1.37-3.95,7.28,7.28,0,0,1,3-2.51A10.08,10.08,0,0,1,335.16,22.55ZM344,23l0,.87h-5.16V23Z"/><path class="cls-3" d="M348.42,22.41l1.28.29c.56.12,1.19.23,1.88.31a16.55,16.55,0,0,0,1.9.12l-5.06.48Zm27.92.72v1.93H348.42V23.13Zm-23,1.78v.15a4.41,4.41,0,0,0-3.26,1.25A4.63,4.63,0,0,0,349,29.59V30h-.53V24.91ZM359,49.07v3h-3.23v-.48h.53a2.46,2.46,0,0,0,1.81-.75,2.62,2.62,0,0,0,.79-1.81Zm6.9-25.75V52.11h-7V23.32Zm-.15,25.75h.15a2.41,2.41,0,0,0,.77,1.81,2.59,2.59,0,0,0,1.88.75h.53v.48h-3.33Zm10.61-26.66v1.2l-5.06-.48a17.45,17.45,0,0,0,2-.12c.71-.08,1.35-.18,1.93-.29A5.59,5.59,0,0,0,376.34,22.41Zm0,2.5V30h-.48v-.44a4.38,4.38,0,0,0-1.13-3.28,4.53,4.53,0,0,0-3.26-1.25v-.15Z"/><path class="cls-4" d="M149.62,80.25a.67.67,0,0,1-.09.29.6.6,0,0,1-.25.25.63.63,0,0,1-.33.09.76.76,0,0,1-.38-.09,2.52,2.52,0,0,1-1-1.16,6.36,6.36,0,0,1-.38-2.55,2.52,2.52,0,0,0-.86-2.19,3.38,3.38,0,0,0-2.07-.64h-4.93v6a.68.68,0,0,1-.18.48.61.61,0,0,1-.47.19.77.77,0,0,1-.53-.19.61.61,0,0,1-.22-.48V66a.68.68,0,0,1,.18-.48.65.65,0,0,1,.48-.19h6a4.6,4.6,0,0,1,2.27.55,4,4,0,0,1,1.57,1.5,4.08,4.08,0,0,1,.56,2.15,4.26,4.26,0,0,1-.74,2.5,3.82,3.82,0,0,1-1.94,1.48,3.43,3.43,0,0,1,1.6,1.28,3.88,3.88,0,0,1,.64,2.19,7.85,7.85,0,0,0,.19,1.93,1.29,1.29,0,0,0,.54.78A.64.64,0,0,1,149.62,80.25Zm-5-7.22a2.91,2.91,0,0,0,1.44-.51,3.19,3.19,0,0,0,1.07-1.2,3.59,3.59,0,0,0,.4-1.73,2.79,2.79,0,0,0-.85-2.1,3.06,3.06,0,0,0-2.24-.84h-5.15V73Z"/><path class="cls-4" d="M161.77,75a.62.62,0,0,1-.46.19h-8.4a5.19,5.19,0,0,0,.54,2.39A4.11,4.11,0,0,0,155,79.27a4.59,4.59,0,0,0,2.39.61,4,4,0,0,0,1.91-.45,3.85,3.85,0,0,0,1.35-1.13.79.79,0,0,1,.47-.2.62.62,0,0,1,.58.58.67.67,0,0,1-.22.46,5.63,5.63,0,0,1-1.79,1.43,4.92,4.92,0,0,1-2.28.55,6.06,6.06,0,0,1-3-.73,5.21,5.21,0,0,1-2.05-2.06,6.17,6.17,0,0,1-.73-3,6.73,6.73,0,0,1,.72-3.19A5.13,5.13,0,0,1,154.26,70a4.9,4.9,0,0,1,2.56-.73,5.18,5.18,0,0,1,2.5.63,4.87,4.87,0,0,1,1.9,1.82,5.54,5.54,0,0,1,.76,2.84A.6.6,0,0,1,161.77,75Zm-7.34-3.57A4.18,4.18,0,0,0,153,74h7.58v-.18a3.52,3.52,0,0,0-.67-1.74A3.58,3.58,0,0,0,158.54,71a4,4,0,0,0-1.72-.39A3.73,3.73,0,0,0,154.43,71.45Z"/><path class="cls-4" d="M174.52,69.74a.67.67,0,0,1,.19.49v10a.65.65,0,0,1-.19.48.62.62,0,0,1-.48.19.61.61,0,0,1-.47-.19.65.65,0,0,1-.19-.48V78.74a4.65,4.65,0,0,1-1.67,1.69,4.51,4.51,0,0,1-2.42.69,4.76,4.76,0,0,1-2.68-.78,5.38,5.38,0,0,1-1.87-2.13,6.74,6.74,0,0,1-.68-3,6.56,6.56,0,0,1,.69-3,5.26,5.26,0,0,1,1.88-2.1,4.84,4.84,0,0,1,2.64-.76,4.79,4.79,0,0,1,2.44.65,4.24,4.24,0,0,1,1.67,1.69V70.23a.67.67,0,0,1,.19-.49.62.62,0,0,1,.47-.2A.63.63,0,0,1,174.52,69.74Zm-3,9.53a4.12,4.12,0,0,0,1.44-1.69,5.48,5.48,0,0,0,.53-2.42,5.27,5.27,0,0,0-.53-2.35,4.15,4.15,0,0,0-1.44-1.68,3.68,3.68,0,0,0-2.08-.61,3.75,3.75,0,0,0-2.08.6,4.1,4.1,0,0,0-1.44,1.66,5.27,5.27,0,0,0-.52,2.38,5.61,5.61,0,0,0,.51,2.42,4.09,4.09,0,0,0,1.43,1.69,3.8,3.8,0,0,0,2.1.61A3.76,3.76,0,0,0,171.5,79.27Z"/><path class="cls-4" d="M179.48,80.71a.7.7,0,0,1-1,0,.69.69,0,0,1-.19-.48V65.12a.69.69,0,0,1,.19-.48.7.7,0,0,1,1,0,.69.69,0,0,1,.19.48V80.23A.69.69,0,0,1,179.48,80.71Z"/><path class="cls-4" d="M199,79.79a.63.63,0,0,1,.19.46.6.6,0,0,1-.19.47.64.64,0,0,1-.47.18h-8.16a.65.65,0,0,1-.48-.19.69.69,0,0,1-.19-.48V66a.69.69,0,0,1,.19-.48.65.65,0,0,1,.48-.19h8.16a.61.61,0,0,1,.47.19.65.65,0,0,1,.19.48.58.58,0,0,1-.19.46.64.64,0,0,1-.47.18h-7.43v5.58h6.43a.61.61,0,0,1,.47.19.65.65,0,0,1,.19.48.58.58,0,0,1-.19.46.64.64,0,0,1-.47.18h-6.43v6h7.43A.59.59,0,0,1,199,79.79Z"/><path class="cls-4" d="M201.18,78.61a.48.48,0,0,1,.29-.44.49.49,0,0,1,.36-.14.69.69,0,0,1,.48.22A4.16,4.16,0,0,0,205.8,80a3.42,3.42,0,0,0,1.86-.5,1.62,1.62,0,0,0,.79-1.46,1.55,1.55,0,0,0-.73-1.4,7.11,7.11,0,0,0-2.05-.8,8.6,8.6,0,0,1-2.89-1.21,2.51,2.51,0,0,1-1-2.19,2.74,2.74,0,0,1,.51-1.63,3.39,3.39,0,0,1,1.39-1.13,4.84,4.84,0,0,1,2-.4,5.54,5.54,0,0,1,1.92.37,4.2,4.2,0,0,1,1.66,1.17.53.53,0,0,1,.2.44.61.61,0,0,1-.23.47.57.57,0,0,1-.4.13.55.55,0,0,1-.4-.18,3.67,3.67,0,0,0-1.26-.91,4.16,4.16,0,0,0-1.58-.31,3.24,3.24,0,0,0-1.79.49,1.65,1.65,0,0,0-.75,1.47,1.58,1.58,0,0,0,.82,1.35,8.1,8.1,0,0,0,2.25.85,10.87,10.87,0,0,1,1.91.64,3.22,3.22,0,0,1,1.24,1,2.86,2.86,0,0,1,.47,1.71,2.72,2.72,0,0,1-1.15,2.31,4.7,4.7,0,0,1-2.87.85,5.2,5.2,0,0,1-4.31-2A1,1,0,0,1,201.18,78.61Z"/><path class="cls-4" d="M214.65,70.83v7.45a1.57,1.57,0,0,0,.31,1.14,1.13,1.13,0,0,0,.82.3,1.74,1.74,0,0,0,.34,0,1.1,1.1,0,0,1,.31-.06.44.44,0,0,1,.34.17.56.56,0,0,1,.15.39.61.61,0,0,1-.36.52,1.64,1.64,0,0,1-.84.21,4.89,4.89,0,0,1-1.07-.11,1.74,1.74,0,0,1-.9-.67,2.89,2.89,0,0,1-.43-1.78V70.83h-1.63a.63.63,0,0,1-.45-.18.56.56,0,0,1-.19-.44.58.58,0,0,1,.19-.45.66.66,0,0,1,.45-.17h1.63V67.12a.65.65,0,0,1,.66-.67.66.66,0,0,1,.48.19.65.65,0,0,1,.19.48v2.47h2.22a.57.57,0,0,1,.44.2.65.65,0,0,1,.19.44.55.55,0,0,1-.18.43.6.6,0,0,1-.45.17Z"/><path class="cls-4" d="M229.66,69.74a.67.67,0,0,1,.19.49v10a.65.65,0,0,1-.19.48.61.61,0,0,1-.47.19.62.62,0,0,1-.48-.19.65.65,0,0,1-.19-.48V78.74a4.65,4.65,0,0,1-1.67,1.69,4.51,4.51,0,0,1-2.42.69,4.78,4.78,0,0,1-2.68-.78,5.46,5.46,0,0,1-1.87-2.13,6.73,6.73,0,0,1-.67-3,6.56,6.56,0,0,1,.69-3,5.16,5.16,0,0,1,1.87-2.1,4.87,4.87,0,0,1,2.64-.76,4.76,4.76,0,0,1,2.44.65,4.24,4.24,0,0,1,1.67,1.69V70.23a.67.67,0,0,1,.19-.49.63.63,0,0,1,.48-.2A.62.62,0,0,1,229.66,69.74Zm-3,9.53a4.14,4.14,0,0,0,1.45-1.69,5.61,5.61,0,0,0,.52-2.42,5.4,5.4,0,0,0-.52-2.35,4.17,4.17,0,0,0-1.45-1.68,3.65,3.65,0,0,0-2.08-.61,3.69,3.69,0,0,0-2.07.6A4.05,4.05,0,0,0,221,72.78a5.27,5.27,0,0,0-.52,2.38,5.61,5.61,0,0,0,.51,2.42,4.09,4.09,0,0,0,1.43,1.69,3.8,3.8,0,0,0,2.1.61A3.73,3.73,0,0,0,226.64,79.27Z"/><path class="cls-4" d="M235.56,70.83v7.45a1.57,1.57,0,0,0,.32,1.14,1.12,1.12,0,0,0,.82.3,1.56,1.56,0,0,0,.33,0,1.24,1.24,0,0,1,.31-.06.46.46,0,0,1,.35.17.6.6,0,0,1,.14.39.62.62,0,0,1-.35.52,1.65,1.65,0,0,1-.85.21,5,5,0,0,1-1.07-.11,1.74,1.74,0,0,1-.9-.67,3,3,0,0,1-.43-1.78V70.83h-1.62a.65.65,0,0,1-.46-.18.6.6,0,0,1-.19-.44.62.62,0,0,1,.19-.45.69.69,0,0,1,.46-.17h1.62V67.12a.65.65,0,0,1,.19-.48.7.7,0,0,1,1,0,.68.68,0,0,1,.18.48v2.47h2.23a.56.56,0,0,1,.43.2.61.61,0,0,1,.19.44.55.55,0,0,1-.18.43.58.58,0,0,1-.44.17Z"/><path class="cls-4" d="M250.17,75a.66.66,0,0,1-.47.19h-8.4a5.19,5.19,0,0,0,.54,2.39,4.25,4.25,0,0,0,1.56,1.67,4.59,4.59,0,0,0,2.39.61,4,4,0,0,0,1.91-.45,3.89,3.89,0,0,0,1.36-1.13.74.74,0,0,1,.46-.2.62.62,0,0,1,.58.58.63.63,0,0,1-.22.46,5.63,5.63,0,0,1-1.79,1.43,4.92,4.92,0,0,1-2.28.55,6.06,6.06,0,0,1-3-.73,5.21,5.21,0,0,1-2-2.06,6.17,6.17,0,0,1-.73-3,6.73,6.73,0,0,1,.72-3.19A5.15,5.15,0,0,1,242.66,70a4.89,4.89,0,0,1,2.55-.73,5.18,5.18,0,0,1,2.5.63,4.87,4.87,0,0,1,1.9,1.82,5.54,5.54,0,0,1,.76,2.84A.63.63,0,0,1,250.17,75Zm-7.35-3.57A4.18,4.18,0,0,0,241.41,74H249v-.18a3.43,3.43,0,0,0-.67-1.74A3.58,3.58,0,0,0,246.93,71a4,4,0,0,0-1.72-.39A3.75,3.75,0,0,0,242.82,71.45Z"/><path class="cls-4" d="M262.05,66.19a1.94,1.94,0,0,0-.39,1.28v2.29h2.49a.6.6,0,0,1,.43.18.58.58,0,0,1,.19.45.58.58,0,0,1-.19.44.6.6,0,0,1-.43.18h-2.49v9.22a.68.68,0,0,1-1.15.48.68.68,0,0,1-.18-.48V71H258.7a.56.56,0,0,1-.44-.19.61.61,0,0,1-.18-.43.59.59,0,0,1,.18-.46.62.62,0,0,1,.44-.17h1.63V67.47a2.83,2.83,0,0,1,.81-2.16,3,3,0,0,1,2.16-.77,3.36,3.36,0,0,1,1.16.19c.36.13.53.33.53.61a.64.64,0,0,1-.17.45.6.6,0,0,1-.4.17,1.25,1.25,0,0,1-.49-.11,3.12,3.12,0,0,0-.78-.13A1.32,1.32,0,0,0,262.05,66.19Z"/><path class="cls-4" d="M276.79,78.23a5.29,5.29,0,0,1-2,2.12,5.72,5.72,0,0,1-5.73,0,5.29,5.29,0,0,1-2-2.12,6.53,6.53,0,0,1,0-6,5.53,5.53,0,0,1,9.77,0,6.53,6.53,0,0,1,0,6Zm-1.15-5.42a4.26,4.26,0,0,0-1.55-1.68,4.2,4.2,0,0,0-4.36,0,4.33,4.33,0,0,0-1.55,1.68,5.38,5.38,0,0,0,0,4.78,4.33,4.33,0,0,0,1.55,1.68,4.23,4.23,0,0,0,4.36,0,4.17,4.17,0,0,0,1.55-1.67,5.51,5.51,0,0,0,0-4.8Z"/><path class="cls-4" d="M286.37,69.45a.58.58,0,0,1,.36.54.71.71,0,0,1-.18.5.58.58,0,0,1-.42.18,1.44,1.44,0,0,1-.43-.11,2,2,0,0,0-.62-.11,2.62,2.62,0,0,0-1.63.64,4.89,4.89,0,0,0-1.33,1.63,4.31,4.31,0,0,0-.52,2v5.49a.69.69,0,0,1-.19.48.67.67,0,0,1-1.15-.48v-10a.62.62,0,0,1,.19-.48.7.7,0,0,1,1,0,.66.66,0,0,1,.19.48v2a5.13,5.13,0,0,1,1.54-2.1,3.87,3.87,0,0,1,2.43-.86A1.71,1.71,0,0,1,286.37,69.45Z"/><path class="cls-4" d="M306.91,80.25a.67.67,0,0,1-.09.29.64.64,0,0,1-.24.25.69.69,0,0,1-.34.09.72.72,0,0,1-.37-.09,2.46,2.46,0,0,1-1-1.16,6.18,6.18,0,0,1-.38-2.55,2.53,2.53,0,0,0-.87-2.19,3.38,3.38,0,0,0-2.07-.64h-4.93v6a.68.68,0,0,1-.18.48.59.59,0,0,1-.46.19.79.79,0,0,1-.54-.19.61.61,0,0,1-.22-.48V66a.65.65,0,0,1,.19-.48.62.62,0,0,1,.48-.19h6a4.62,4.62,0,0,1,2.27.55,4,4,0,0,1,1.56,1.5,4.09,4.09,0,0,1,.57,2.15,4.27,4.27,0,0,1-.75,2.5,3.74,3.74,0,0,1-1.94,1.48,3.43,3.43,0,0,1,1.6,1.28,3.88,3.88,0,0,1,.64,2.19,8.39,8.39,0,0,0,.19,1.93,1.3,1.3,0,0,0,.55.78A.65.65,0,0,1,306.91,80.25ZM302,73a3,3,0,0,0,1.45-.51,3.36,3.36,0,0,0,1.07-1.2,3.71,3.71,0,0,0,.4-1.73,2.8,2.8,0,0,0-.86-2.1,3,3,0,0,0-2.23-.84h-5.16V73Z"/><path class="cls-4" d="M319.07,75a.64.64,0,0,1-.47.19h-8.4a5.07,5.07,0,0,0,.55,2.39,4.16,4.16,0,0,0,1.55,1.67,4.61,4.61,0,0,0,2.39.61,4,4,0,0,0,1.91-.45A3.8,3.8,0,0,0,318,78.3a.77.77,0,0,1,.46-.2.53.53,0,0,1,.4.18.55.55,0,0,1,.18.4.63.63,0,0,1-.22.46A5.52,5.52,0,0,1,317,80.57a4.92,4.92,0,0,1-2.28.55,6.06,6.06,0,0,1-3-.73,5.18,5.18,0,0,1-2-2.06,6.18,6.18,0,0,1-.74-3,6.73,6.73,0,0,1,.72-3.19A5.22,5.22,0,0,1,311.56,70a4.89,4.89,0,0,1,2.55-.73,5.16,5.16,0,0,1,2.5.63,4.87,4.87,0,0,1,1.9,1.82,5.54,5.54,0,0,1,.76,2.84A.63.63,0,0,1,319.07,75Zm-7.35-3.57A4.18,4.18,0,0,0,310.31,74h7.58v-.18a3.43,3.43,0,0,0-.67-1.74A3.62,3.62,0,0,0,315.84,71a4,4,0,0,0-1.73-.39A3.75,3.75,0,0,0,311.72,71.45Z"/><path class="cls-4" d="M331.82,69.74a.71.71,0,0,1,.18.49v10a.68.68,0,0,1-.18.48.67.67,0,0,1-1.15-.48V78.74A4.58,4.58,0,0,1,329,80.43a4.48,4.48,0,0,1-2.42.69,4.8,4.8,0,0,1-2.68-.78A5.36,5.36,0,0,1,322,78.21a7.09,7.09,0,0,1,0-6.08,5.19,5.19,0,0,1,1.88-2.1,4.83,4.83,0,0,1,2.63-.76,4.76,4.76,0,0,1,2.44.65,4.17,4.17,0,0,1,1.67,1.69V70.23a.67.67,0,0,1,.19-.49.68.68,0,0,1,1,0Zm-3,9.53a4.14,4.14,0,0,0,1.45-1.69,5.47,5.47,0,0,0,.52-2.42,5.26,5.26,0,0,0-.52-2.35,4.17,4.17,0,0,0-1.45-1.68,3.62,3.62,0,0,0-2.07-.61,3.7,3.7,0,0,0-2.08.6,4.05,4.05,0,0,0-1.45,1.66,5.27,5.27,0,0,0-.52,2.38,5.61,5.61,0,0,0,.51,2.42,4.09,4.09,0,0,0,1.43,1.69,3.81,3.81,0,0,0,2.11.61A3.7,3.7,0,0,0,328.79,79.27Z"/><path class="cls-4" d="M336.77,80.71a.62.62,0,0,1-.48.19.61.61,0,0,1-.47-.19.65.65,0,0,1-.19-.48V65.12a.65.65,0,0,1,.19-.48.61.61,0,0,1,.47-.19.62.62,0,0,1,.48.19.65.65,0,0,1,.19.48V80.23A.65.65,0,0,1,336.77,80.71Z"/><path class="cls-4" d="M356.31,79.79a.68.68,0,0,1,.19.46.63.63,0,0,1-.19.47.68.68,0,0,1-.48.18h-8.16a.61.61,0,0,1-.47-.19.65.65,0,0,1-.19-.48V66a.65.65,0,0,1,.19-.48.61.61,0,0,1,.47-.19h8.16a.65.65,0,0,1,.48.19.69.69,0,0,1,.19.48.61.61,0,0,1-.19.46.68.68,0,0,1-.48.18h-7.42v5.58h6.42a.65.65,0,0,1,.48.19.69.69,0,0,1,.19.48.61.61,0,0,1-.19.46.68.68,0,0,1-.48.18h-6.42v6h7.42A.62.62,0,0,1,356.31,79.79Z"/><path class="cls-4" d="M368.89,64.64a.69.69,0,0,1,.19.48V80.23a.69.69,0,0,1-.19.48.7.7,0,0,1-1,0,.69.69,0,0,1-.19-.48V78.68a4.77,4.77,0,0,1-1.65,1.73,4.46,4.46,0,0,1-2.44.71,4.72,4.72,0,0,1-2.65-.77,5.32,5.32,0,0,1-1.88-2.12,7,7,0,0,1,0-6.07A5.39,5.39,0,0,1,361,70a4.76,4.76,0,0,1,2.63-.77,4.69,4.69,0,0,1,2.43.66,4.42,4.42,0,0,1,1.68,1.7V65.12a.69.69,0,0,1,.19-.48.7.7,0,0,1,1,0Zm-3,14.64a4.1,4.1,0,0,0,1.44-1.68,5.43,5.43,0,0,0,.52-2.41,5.3,5.3,0,0,0-.52-2.38,4.23,4.23,0,0,0-1.44-1.68,3.85,3.85,0,0,0-4.16,0,4.08,4.08,0,0,0-1.44,1.68,5.3,5.3,0,0,0-.53,2.38,5.36,5.36,0,0,0,.53,2.4,4.08,4.08,0,0,0,1.44,1.68,3.88,3.88,0,0,0,4.16,0Z"/><path class="cls-4" d="M372.5,67.64a.76.76,0,0,1-.24-.61v-.22a.74.74,0,0,1,.25-.61,1.08,1.08,0,0,1,.7-.22c.59,0,.89.28.89.83V67a.79.79,0,0,1-.23.61,1,1,0,0,1-.68.21A1,1,0,0,1,372.5,67.64Zm1.17,13.07a.7.7,0,0,1-1,0,.69.69,0,0,1-.19-.48V70a.69.69,0,0,1,.19-.48.7.7,0,0,1,1,0,.69.69,0,0,1,.19.48V80.23A.69.69,0,0,1,373.67,80.71Z"/><path class="cls-4" d="M379.55,70.83v7.45a1.57,1.57,0,0,0,.31,1.14,1.12,1.12,0,0,0,.82.3,1.56,1.56,0,0,0,.33,0,1.24,1.24,0,0,1,.31-.06.46.46,0,0,1,.35.17.6.6,0,0,1,.14.39.62.62,0,0,1-.35.52,1.65,1.65,0,0,1-.85.21,4.8,4.8,0,0,1-1.06-.11,1.67,1.67,0,0,1-.9-.67,2.89,2.89,0,0,1-.44-1.78V70.83h-1.62a.65.65,0,0,1-.46-.18.59.59,0,0,1-.18-.44.61.61,0,0,1,.18-.45.69.69,0,0,1,.46-.17h1.62V67.12a.67.67,0,1,1,1.34,0v2.47h2.22a.55.55,0,0,1,.43.2.61.61,0,0,1,.19.44.55.55,0,0,1-.18.43.58.58,0,0,1-.44.17Z"/><path class="cls-4" d="M384.79,67.64a.76.76,0,0,1-.24-.61v-.22a.74.74,0,0,1,.25-.61,1.08,1.08,0,0,1,.7-.22c.59,0,.89.28.89.83V67a.79.79,0,0,1-.23.61,1,1,0,0,1-.68.21A1,1,0,0,1,384.79,67.64ZM386,80.71a.7.7,0,0,1-1,0,.69.69,0,0,1-.19-.48V70a.69.69,0,0,1,.19-.48.7.7,0,0,1,1,0,.69.69,0,0,1,.19.48V80.23A.69.69,0,0,1,386,80.71Z"/><path class="cls-4" d="M399.37,78.23a5.36,5.36,0,0,1-2,2.12,5.73,5.73,0,0,1-5.74,0,5.36,5.36,0,0,1-2-2.12,6.61,6.61,0,0,1,0-6,5.53,5.53,0,0,1,9.78,0,6.61,6.61,0,0,1,0,6Zm-1.15-5.42a4.26,4.26,0,0,0-1.55-1.68,4.22,4.22,0,0,0-4.37,0,4.38,4.38,0,0,0-1.54,1.68,5.3,5.3,0,0,0,0,4.78,4.38,4.38,0,0,0,1.54,1.68,4.25,4.25,0,0,0,4.37,0,4.17,4.17,0,0,0,1.55-1.67,5.51,5.51,0,0,0,0-4.8Z"/><path class="cls-4" d="M411.23,70.49a5,5,0,0,1,1,3.21v6.53a.67.67,0,0,1-.67.67.65.65,0,0,1-.67-.67V73.76a3.63,3.63,0,0,0-.72-2.34,2.69,2.69,0,0,0-2.23-.9,4,4,0,0,0-1.82.44,3.9,3.9,0,0,0-1.38,1.19,2.71,2.71,0,0,0-.54,1.61v6.47a.65.65,0,0,1-.19.48.61.61,0,0,1-.47.19.62.62,0,0,1-.48-.19.65.65,0,0,1-.19-.48v-10a.65.65,0,0,1,.67-.67.61.61,0,0,1,.47.19.62.62,0,0,1,.19.48V71.5a4.73,4.73,0,0,1,1.72-1.59,4.68,4.68,0,0,1,2.3-.64A3.66,3.66,0,0,1,411.23,70.49Z"/><path class="cls-4" d="M414.86,78.61a.48.48,0,0,1,.29-.44.49.49,0,0,1,.36-.14.71.71,0,0,1,.49.22A4.14,4.14,0,0,0,419.49,80a3.39,3.39,0,0,0,1.85-.5,1.62,1.62,0,0,0,.79-1.46,1.55,1.55,0,0,0-.73-1.4,7.11,7.11,0,0,0-2-.8,8.6,8.6,0,0,1-2.89-1.21,2.54,2.54,0,0,1-1-2.19,2.74,2.74,0,0,1,.51-1.63,3.39,3.39,0,0,1,1.39-1.13,4.84,4.84,0,0,1,2-.4,5.49,5.49,0,0,1,1.92.37,4.2,4.2,0,0,1,1.66,1.17.53.53,0,0,1,.2.44.61.61,0,0,1-.23.47.6.6,0,0,1-.8,0,3.58,3.58,0,0,0-1.26-.91,4.16,4.16,0,0,0-1.58-.31,3.24,3.24,0,0,0-1.79.49,1.64,1.64,0,0,0-.74,1.47,1.57,1.57,0,0,0,.81,1.35,8.1,8.1,0,0,0,2.25.85,10.87,10.87,0,0,1,1.91.64,3.22,3.22,0,0,1,1.24,1,2.8,2.8,0,0,1,.48,1.71,2.73,2.73,0,0,1-1.16,2.31,4.7,4.7,0,0,1-2.87.85,5.2,5.2,0,0,1-4.31-2A1,1,0,0,1,414.86,78.61Z"/><path class="cls-2" d="M57.86,63.91a1.66,1.66,0,0,0,1-1.19c1.17-5-3.61-4.87-7.7-4.87a28.58,28.58,0,0,1-6.08-.54,14.69,14.69,0,0,1-2.14-.66l-3.08-3.1a1.79,1.79,0,0,0-1.07-.36H27.61V70.26S37.38,73.7,42,75.37c3.41,1.16,8.11.65,10.06.36a6.23,6.23,0,0,0,1.64-.5L64.7,70c4.72-2.35,11.4-7.09,11.75-8.51.82-3.32-1.31-5.08-7.06-2.23a56,56,0,0,1-11.56,4.63"/><path class="cls-1" d="M47.29,76.84a17.77,17.77,0,0,1-5.55-.76C37.13,74.41,27.36,71,27.36,71l-.51-.17V52.44H38.79a2.53,2.53,0,0,1,1.52.51l.08.07,3,3c.23.1,1.54.45,1.83.52a27.87,27.87,0,0,0,5.91.52h.25c2.88,0,6.15,0,7.63,1.86a4.27,4.27,0,0,1,.61,3.64,66.71,66.71,0,0,0,9.4-4c4.25-2.1,6.3-1.61,7.27-.84s1.28,2.18.86,3.92c-.49,2-8.17,7-12.14,9L54,75.9a6.79,6.79,0,0,1-1.86.57A34.39,34.39,0,0,1,47.29,76.84ZM28.35,69.73c2.06.72,9.91,3.49,13.89,4.93,3.26,1.12,7.87.6,9.7.33a5.51,5.51,0,0,0,1.43-.44l11-5.21c5.16-2.57,11-7,11.34-8,.16-.65.33-1.83-.34-2.38-.87-.69-3-.31-5.66,1A57.15,57.15,0,0,1,58,64.64C54.55,65.86,44.59,66,44.16,66a2,2,0,0,0-1.29.46.92.92,0,0,0-.22.72l-1.5.07a2.44,2.44,0,0,1,.64-1.83,3.5,3.5,0,0,1,2.36-.92c.09,0,10.26-.16,13.45-1.32a.89.89,0,0,0,.53-.65,3,3,0,0,0-.27-2.66c-1-1.29-3.91-1.29-6.45-1.29h-.25A29.22,29.22,0,0,1,44.92,58a12.29,12.29,0,0,1-2.43-.79l-.08-.07-3-3.06a1,1,0,0,0-.58-.18H28.35Z"/><path class="cls-2" d="M60.4,25.81,47.18,37.7V56a.55.55,0,0,0,.55.55H55.8a.55.55,0,0,0,.55-.55V43.38a.55.55,0,0,1,.56-.55h7a.54.54,0,0,1,.55.55V56a.56.56,0,0,0,.56.55h8.07a.55.55,0,0,0,.55-.55V37.7Z"/><path class="cls-2" d="M60.4,16.33,40.57,33.82a.41.41,0,0,0,0,.58l2.72,3a.41.41,0,0,0,.58,0l16.61-15L77.51,37.57a.38.38,0,0,0,.52,0l2.77-3.08a.37.37,0,0,0,0-.52L60.4,16.33"/><rect class="cls-2" x="17.41" y="51.7" width="9.14" height="20.3" rx="0.54"/><line class="cls-5" x1="21.98" y1="55.13" x2="21.98" y2="57.5"/><rect class="cls-1" x="21.48" y="55.13" width="1" height="2.38"/><line class="cls-5" x1="21.98" y1="60.05" x2="21.98" y2="68.57"/><rect class="cls-1" x="21.48" y="60.05" width="1" height="8.52"/></g></g></svg>