<svg xmlns="http://www.w3.org/2000/svg" viewBox="0 0 142.48 138.36"><defs><style>.cls-1{fill:#f8961e;}</style></defs><g id="Layer_2" data-name="Layer 2"><g id="Layer_1-2" data-name="Layer 1"><path class="cls-1" d="M14.53,14.53H0V0H14.53ZM2,12.53H12.53V2H2Z"/><path class="cls-1" d="M115.47,14.53H101V0h14.52Zm-12.52-2h10.52V2H103Z"/><rect class="cls-1" x="30.37" y="6.26" width="18.95" height="2"/><rect class="cls-1" x="66.16" y="6.26" width="18.95" height="2"/><path class="cls-1" d="M14.53,113.79H0V99.26H14.53ZM2,111.79H12.53V101.26H2Z"/><rect class="cls-1" x="30.37" y="105.53" width="18.95" height="2"/><rect class="cls-1" x="66.16" y="105.53" width="18.95" height="2"/><rect class="cls-1" x="6.26" y="66.26" width="2" height="18.95"/><rect class="cls-1" x="6.26" y="30.47" width="2" height="18.95"/><rect class="cls-1" x="107.21" y="65.32" width="2" height="18.95"/><rect class="cls-1" x="107.21" y="29.53" width="2" height="18.95"/><path class="cls-1" d="M107.6,138.36,78.26,79l64.22,21L112,107.48Zm-25.44-56,24.36,49.31,3.65-25.81,25-6.13Z"/></g></g></svg>