<svg xmlns="http://www.w3.org/2000/svg" viewBox="0 0 178.07 178.07"><defs><style>.cls-1{fill:#f3f3f3;}.cls-2{fill:#fff;}.cls-3{fill:#f7931e;}</style></defs><g id="Layer_2" data-name="Layer 2"><g id="Layer_1-2" data-name="Layer 1"><circle class="cls-1" cx="89.03" cy="89.03" r="82.53"/><path class="cls-2" d="M89,13A76,76,0,1,1,13,89,76,76,0,0,1,89,13M89,0a89,89,0,1,0,89,89A89.13,89.13,0,0,0,89,0Z"/><path class="cls-1" d="M58,107.52a36.05,36.05,0,1,1,2.85,3.81"/><path class="cls-3" d="M88.17,125.43a37.45,37.45,0,0,1-28.5-13.13l2.28-2a34.41,34.41,0,1,0-2.73-3.65l-2.52,1.64a37.51,37.51,0,1,1,31.47,17.09Z"/><path class="cls-1" d="M70.3,68.14a26.67,26.67,0,1,1-3,3.24"/><path class="cls-3" d="M88.57,116A28.3,28.3,0,0,1,60.31,87.69a28,28,0,0,1,5.86-17.23l2.37,1.83a25.26,25.26,0,1,0,2.78-3.06l-2-2.19A28.27,28.27,0,1,1,88.57,116Z"/><circle class="cls-1" cx="88.94" cy="87.87" r="17.94"/><path class="cls-3" d="M88.94,107.3a19.44,19.44,0,1,1,19.44-19.43A19.46,19.46,0,0,1,88.94,107.3Zm0-35.87a16.44,16.44,0,1,0,16.44,16.44A16.45,16.45,0,0,0,88.94,71.43Z"/><circle class="cls-1" cx="88.96" cy="87.47" r="9.04"/><path class="cls-3" d="M89,98A10.54,10.54,0,1,1,99.49,87.47,10.55,10.55,0,0,1,89,98Zm0-18.08a7.54,7.54,0,1,0,7.53,7.54A7.55,7.55,0,0,0,89,79.93Z"/><path class="cls-1" d="M121.75,55.89,132.38,59,119.74,72c-2.8,2.86-7,3.26-9.46.89l-2.61-2.54"/><path class="cls-3" d="M114.24,75.42a6.56,6.56,0,0,1-4.66-1.84L107,71l1.4-1.43L111,72.15a4.69,4.69,0,0,0,3.8,1.24A6.84,6.84,0,0,0,119,71.28L130.5,59.51l-9-2.66.56-1.92,12.23,3.6L120.45,72.68a8.88,8.88,0,0,1-5.49,2.7A5.79,5.79,0,0,1,114.24,75.42Z"/><path class="cls-1" d="M119.28,53.48l-3.39-10.55-12.65,13c-2.79,2.86-3.08,7.11-.65,9.48l2.61,2.54"/><path class="cls-3" d="M104.5,68.63l-2.61-2.54A6.7,6.7,0,0,1,100,60.75a8.89,8.89,0,0,1,2.57-5.56L116.33,41l3.9,12.13-1.9.62-2.89-9L104,56.59a6.9,6.9,0,0,0-2,4.29,4.72,4.72,0,0,0,1.34,3.77l2.61,2.55Z"/><path class="cls-1" d="M102.29,48h3.46a0,0,0,0,1,0,0V93.48A1.73,1.73,0,0,1,104,95.21h0a1.73,1.73,0,0,1-1.73-1.73V48A0,0,0,0,1,102.29,48Z" transform="translate(79.56 -52.29) rotate(44.29)"/><path class="cls-3" d="M88.74,90a2.72,2.72,0,0,1-1.91-.78h0a2.72,2.72,0,0,1,0-3.85l32.48-33.29,3.9,3.81L90.69,89.17A2.75,2.75,0,0,1,88.74,90Zm-.51-2.21a.73.73,0,0,0,1,0l31.08-31.86-1-1L88.21,86.75a.73.73,0,0,0,0,1Z"/><path class="cls-1" d="M100.32,99.2a13,13,0,1,1-2.48,2.22"/><path class="cls-3" d="M107.67,124.43a14.51,14.51,0,0,1-11-24l2.27,2a11.47,11.47,0,1,0,2.2-2L99.48,98a14.5,14.5,0,1,1,8.19,26.47Z"/><polygon class="cls-1" points="99.22 110.44 101.78 107.81 105.95 111.88 113.51 104.13 116.14 106.69 106.02 117.06 99.22 110.44"/><path class="cls-3" d="M113.53,105.55l1.19,1.16-7.56,7.75L106,115.65l-1.19-1.16-4.18-4.07,1.17-1.19L106,113.3l7.56-7.75m0-2.83-1.39,1.43-6.17,6.32-2.74-2.68-1.43-1.39-1.39,1.43L99.2,109l-1.39,1.43,1.43,1.4,4.17,4.07,1.19,1.16,1.43,1.4,1.4-1.43,1.16-1.19,7.56-7.75,1.4-1.43-1.43-1.4-1.19-1.16-1.44-1.4Z"/></g></g></svg>