<svg xmlns="http://www.w3.org/2000/svg" viewBox="0 0 178.07 178.07"><defs><style>.cls-1{fill:#f3f3f3;}.cls-2{fill:#fff;}.cls-3{fill:#f7931e;}</style></defs><g id="Layer_2" data-name="Layer 2"><g id="Layer_1-2" data-name="Layer 1"><circle class="cls-1" cx="89.03" cy="89.03" r="82.53" transform="translate(-13.11 162.66) rotate(-80.78)"/><path class="cls-2" d="M89,13A76,76,0,1,1,13,89,76,76,0,0,1,89,13M89,0a89,89,0,1,0,89,89A89.13,89.13,0,0,0,89,0Z"/><path class="cls-3" d="M118,130.73H60.57a5.5,5.5,0,0,1-5.49-5.49V71.78h68.38v53.46A5.49,5.49,0,0,1,118,130.73ZM58.08,74.78v50.46a2.49,2.49,0,0,0,2.49,2.49H118a2.48,2.48,0,0,0,2.49-2.49V74.78Z"/><path class="cls-3" d="M110.61,74.78a1.5,1.5,0,0,1-1.5-1.5V61.12a19.61,19.61,0,0,0-5.67-14.43A19.7,19.7,0,0,0,75,46.81a19.59,19.59,0,0,0-5.55,14.26V73.28a1.5,1.5,0,0,1-3,0V61.12A22.93,22.93,0,0,1,89.07,37.68a22.82,22.82,0,0,1,16.51,6.91,22.56,22.56,0,0,1,6.53,16.57V73.28A1.5,1.5,0,0,1,110.61,74.78Z"/><path class="cls-3" d="M74.32,74.78h0a1.51,1.51,0,0,1-1.5-1.51l0-11A16.49,16.49,0,0,1,89.13,45.4h.14a16.5,16.5,0,0,1,11.73,5,16.17,16.17,0,0,1,4.69,11.91v11a1.5,1.5,0,0,1-3,0v-11a13.26,13.26,0,0,0-3.84-9.78,13.51,13.51,0,0,0-9.58-4.06h-.12A13.49,13.49,0,0,0,75.86,62.19l0,11.09A1.5,1.5,0,0,1,74.32,74.78Z"/><path class="cls-3" d="M94.05,118h-9.6l1.19-21a1.54,1.54,0,0,1,1.59-1.42,1.51,1.51,0,0,1,1.41,1.59l-1,17.84h3.3l-.76-17.87a1.5,1.5,0,1,1,3-.12Z"/><path class="cls-3" d="M89.26,98.88a6.32,6.32,0,1,1,6.35-6.32A6.35,6.35,0,0,1,89.26,98.88Zm0-9.64a3.32,3.32,0,1,0,3.35,3.32A3.35,3.35,0,0,0,89.26,89.24Z"/></g></g></svg>