<svg xmlns="http://www.w3.org/2000/svg" viewBox="0 0 142.27 132.87"><defs><style>.cls-1{fill:#f7931e;}</style></defs><g id="Layer_2" data-name="Layer 2"><g id="Layer_1-2" data-name="Layer 1"><path class="cls-1" d="M9,70.77a9.26,9.26,0,0,1-.33-2.35,11.82,11.82,0,0,1,20.88-7.59L28,62.11a9.82,9.82,0,0,0-17.34,6.31A7.17,7.17,0,0,0,11,70.27Z"/><path class="cls-1" d="M29.65,71.08a10.45,10.45,0,0,1-1.85-6A11.83,11.83,0,0,1,39.62,53.26a11.66,11.66,0,0,1,9.81,5.31,8,8,0,0,1,1-.07A11.83,11.83,0,0,1,62.25,70.32h-2a9.83,9.83,0,0,0-9.82-9.82,8.28,8.28,0,0,0-1.18.12l-.85.12-.34-.58a9.71,9.71,0,0,0-8.44-4.9,9.82,9.82,0,0,0-9.82,9.81A8.38,8.38,0,0,0,31.31,70Z"/><path class="cls-1" d="M136.41,81.4H5.86a5.87,5.87,0,0,1,0-11.73H136.41a5.87,5.87,0,0,1,0,11.73ZM5.86,71.67a3.87,3.87,0,0,0,0,7.73H136.41a3.87,3.87,0,0,0,0-7.73Z"/><path class="cls-1" d="M108.93,123.91H33.33a13.67,13.67,0,0,1-13-9.31L9,80.72l1.9-.64L22.27,114a11.66,11.66,0,0,0,11.06,8h75.6A11.66,11.66,0,0,0,120,114l11.41-33.88,1.89.64L121.9,114.6A13.68,13.68,0,0,1,108.93,123.91Z"/><path class="cls-1" d="M107.27,122.58h-4l4.29,9.09a2.18,2.18,0,0,0,2.94,1h0a2.19,2.19,0,0,0,1-2.94l-3.18-7.11"/><path class="cls-1" d="M36.27,122.58h4L36,131.67a2.17,2.17,0,0,1-2.93,1h0a2.19,2.19,0,0,1-1-2.94l3.19-7.11"/><path class="cls-1" d="M132.33,70.67h-2V14.21A12,12,0,0,0,119.06,2a11.86,11.86,0,0,0-12.43,11.84v2.9h-2v-2.9A13.85,13.85,0,0,1,119.15,0a14,14,0,0,1,13.18,14.19Z"/><path class="cls-1" d="M116.66,26.53h-22V25.22A9.44,9.44,0,0,1,104,15.79h3.19a9.44,9.44,0,0,1,9.43,9.43Zm-20-2h18a7.45,7.45,0,0,0-7.4-6.74H104A7.44,7.44,0,0,0,96.64,24.53Z"/><circle class="cls-1" cx="105.63" cy="31.82" r="0.69"/><path class="cls-1" d="M105.63,30.12a1.7,1.7,0,1,0,1.7,1.7,1.7,1.7,0,0,0-1.7-1.7Z"/><circle class="cls-1" cx="105.63" cy="36.84" r="0.69"/><path class="cls-1" d="M105.63,35.15a1.7,1.7,0,1,0,1.7,1.69,1.69,1.69,0,0,0-1.7-1.69Z"/><circle class="cls-1" cx="105.63" cy="42.22" r="0.69"/><path class="cls-1" d="M105.63,40.53a1.7,1.7,0,1,0,1.7,1.69,1.69,1.69,0,0,0-1.7-1.69Z"/><circle class="cls-1" cx="105.63" cy="47.25" r="0.69"/><path class="cls-1" d="M105.63,45.56a1.69,1.69,0,1,0,1.7,1.69,1.69,1.69,0,0,0-1.7-1.69Z"/><path class="cls-1" d="M98.16,32.51a.7.7,0,1,1,.69-.69A.69.69,0,0,1,98.16,32.51Z"/><path class="cls-1" d="M98.16,30.12a1.7,1.7,0,1,0,1.7,1.7,1.7,1.7,0,0,0-1.7-1.7Z"/><path class="cls-1" d="M98.16,37.54a.7.7,0,1,1,.69-.7A.69.69,0,0,1,98.16,37.54Z"/><path class="cls-1" d="M98.16,35.15a1.7,1.7,0,1,0,1.7,1.69,1.69,1.69,0,0,0-1.7-1.69Z"/><path class="cls-1" d="M98.16,42.92a.7.7,0,1,1,.69-.7A.69.69,0,0,1,98.16,42.92Z"/><path class="cls-1" d="M98.16,40.53a1.7,1.7,0,1,0,1.7,1.69,1.69,1.69,0,0,0-1.7-1.69Z"/><path class="cls-1" d="M98.16,47.94a.69.69,0,1,1,.69-.69A.69.69,0,0,1,98.16,47.94Z"/><path class="cls-1" d="M98.16,45.56a1.69,1.69,0,1,0,1.7,1.69,1.69,1.69,0,0,0-1.7-1.69Z"/><circle class="cls-1" cx="113.56" cy="31.82" r="0.69"/><path class="cls-1" d="M113.56,30.12a1.7,1.7,0,1,0,1.7,1.7,1.7,1.7,0,0,0-1.7-1.7Z"/><circle class="cls-1" cx="113.56" cy="36.84" r="0.69"/><path class="cls-1" d="M113.56,35.15a1.7,1.7,0,1,0,1.7,1.69,1.69,1.69,0,0,0-1.7-1.69Z"/><circle class="cls-1" cx="113.56" cy="42.22" r="0.69"/><path class="cls-1" d="M113.56,40.53a1.7,1.7,0,1,0,1.7,1.69,1.69,1.69,0,0,0-1.7-1.69Z"/><circle class="cls-1" cx="113.56" cy="47.25" r="0.69"/><path class="cls-1" d="M113.56,45.56a1.69,1.69,0,1,0,1.7,1.69,1.69,1.69,0,0,0-1.7-1.69Z"/></g></g></svg>