<svg xmlns="http://www.w3.org/2000/svg" viewBox="0 0 140 88.26"><defs><style>.cls-1{fill:#f7931e;}</style></defs><g id="Layer_2" data-name="Layer 2"><g id="Layer_1-2" data-name="Layer 1"><path class="cls-1" d="M123.58,34.22H16.42V5a5,5,0,0,1,5-5h97.16a5,5,0,0,1,5,5Zm-105.16-2H121.58V5a3,3,0,0,0-3-3H21.42a3,3,0,0,0-3,3Z"/><path class="cls-1" d="M115.85,34H72.45V20.93a5,5,0,0,1,5-5h33.4a5,5,0,0,1,5,5Zm-41.4-2h39.4V20.93a3,3,0,0,0-3-3H77.45a3,3,0,0,0-3,3Z"/><path class="cls-1" d="M67.55,34H24.15V20.93a5,5,0,0,1,5-5h33.4a5,5,0,0,1,5,5Zm-41.4-2h39.4V20.93a3,3,0,0,0-3-3H29.15a3,3,0,0,0-3,3Z"/><path class="cls-1" d="M135,58.35H5a5,5,0,0,1-5-5V43.22a11,11,0,0,1,11-11H129a11,11,0,0,1,11,11V53.35A5,5,0,0,1,135,58.35ZM11,34.22a9,9,0,0,0-9,9V53.35a3,3,0,0,0,3,3H135a3,3,0,0,0,3-3V43.22a9,9,0,0,0-9-9Z"/><path class="cls-1" d="M135,70.8H5a5,5,0,0,1-5-5V61.52a5,5,0,0,1,5-5H135a5,5,0,0,1,5,5V65.8A5,5,0,0,1,135,70.8ZM5,58.52a3,3,0,0,0-3,3V65.8a3,3,0,0,0,3,3H135a3,3,0,0,0,3-3V61.52a3,3,0,0,0-3-3Z"/><path class="cls-1" d="M20.16,88.09H17.67a5,5,0,0,1-5-5V68.8H25.16V83.09A5,5,0,0,1,20.16,88.09ZM14.67,70.8V83.09a3,3,0,0,0,3,3h2.49a3,3,0,0,0,3-3V70.8Z"/><path class="cls-1" d="M123.83,88.26h-2.5a5,5,0,0,1-5-5V69h12.5V83.26A5,5,0,0,1,123.83,88.26ZM118.33,71V83.26a3,3,0,0,0,3,3h2.5a3,3,0,0,0,3-3V71Z"/></g></g></svg>